<svg version="1.1" id="Capa_1" xmlns="http://www.w3.org/2000/svg" xmlns:xlink="http://www.w3.org/1999/xlink" x="0px" y="0px" viewBox="0 0 50 50" style="enable-background:new 0 0 460 460;" xml:space="preserve" width="50" height="50"><g><path style="fill:#0B389C;" points="306.5,153.5 306.5,0 230,0 230,460 306.5,460 306.5,306.5 460,306.5 460,153.5 	" d="M33.315 16.685L33.315 0L25 0L25 50L33.315 50L33.315 33.315L50 33.315L50 16.685Z"/><path style="fill:#4370D9;" points="153.5,0 153.5,153.5 0,153.5 0,306.5 153.5,306.5 153.5,460 230,460 230,0 	" d="M16.685 0L16.685 16.685L0 16.685L0 33.315L16.685 33.315L16.685 50L25 50L25 0Z"/></g></svg>